<svg xmlns="http://www.w3.org/2000/svg" width="38.333" height="35.921" viewBox="0 0 38.333 35.921">
  <g id="Group_12" data-name="Group 12" transform="translate(-618.653 -298.118)">
    <path id="Path_298" data-name="Path 298" d="M656.986,311.187l-6.15,8.12-.795-1.06a23.605,23.605,0,0,0-7.441-6.74,9.743,9.743,0,0,0-10.049.123,25.5,25.5,0,0,0-7.624,6.869c-.174.224-.346.45-.642.834l-5.632-8.163,1.361-.943,4.2,6.057c1.953-1.7,3.778-3.421,5.744-4.963a13.449,13.449,0,0,1,6.359-2.734c.251-.038.642-.385.648-.6.053-1.747.03-3.5.03-5.343h-2.429v-1.67h2.451v-2.857h1.608v2.792l2.493.118c.025.5.048.972.078,1.585h-2.462V308.5c5.2.8,8.827,4.093,12.122,7.992l4.807-6.271Z" fill="#fff"/>
    <path id="Path_299" data-name="Path 299" d="M724.1,401.626V415.2h-4.2c-.023-.308-.065-.62-.066-.932,0-3.837.022-7.674-.022-11.511-.01-.9.262-1.211,1.158-1.149C721.965,401.678,722.967,401.626,724.1,401.626Z" transform="translate(-79.359 -81.182)" fill="#fff"/>
    <path id="Path_300" data-name="Path 300" d="M675.679,401.958H679.8V415.5h-4.118Z" transform="translate(-44.736 -81.461)" fill="#fff"/>
  </g>
</svg>
